<!DOCTYPE svg PUBLIC "-//W3C//DTD SVG 20010904//EN" "http://www.w3.org/TR/2001/REC-SVG-20010904/DTD/svg10.dtd">
<svg version="1.0" xmlns="http://www.w3.org/2000/svg" width="322px" height="492px" viewBox="0 0 3220 4920" preserveAspectRatio="xMidYMid meet">
<g id="layer101" fill="#670e7a" stroke="none">
 <path d="M406 4904 c-174 -42 -324 -184 -379 -359 l-22 -70 0 -1055 0 -1055 22 -70 c56 -178 205 -318 384 -360 93 -22 577 -22 619 0 38 20 50 43 50 99 0 36 -6 52 -29 78 l-29 33 -279 5 c-258 5 -281 7 -325 27 -60 27 -127 94 -158 158 l-25 50 0 1035 0 1035 25 50 c34 70 108 139 175 164 55 21 67 21 1175 21 1108 0 1120 0 1175 -21 67 -25 141 -94 175 -164 l25 -50 0 -1035 0 -1035 -25 -50 c-31 -64 -98 -131 -158 -158 -44 -20 -67 -22 -325 -27 l-279 -5 -29 -33 c-23 -26 -29 -42 -29 -78 0 -56 12 -79 50 -99 42 -22 526 -22 618 0 180 43 329 181 385 360 l22 70 0 1055 0 1055 -22 70 c-56 178 -205 318 -384 360 -93 22 -2312 21 -2403 -1z"/>
 <path d="M1565 3201 c-11 -5 -29 -19 -40 -31 -20 -22 -20 -40 -25 -1406 l-5 -1384 -335 336 c-195 196 -349 342 -369 351 -69 30 -141 -21 -141 -100 0 -41 3 -44 448 -492 262 -264 460 -456 480 -464 27 -12 37 -12 65 0 19 8 217 200 480 464 444 448 447 451 447 492 0 79 -72 130 -141 100 -20 -9 -174 -155 -369 -351 l-335 -336 -5 1385 -5 1385 -26 26 c-28 28 -89 40 -124 25z"/>
 </g>

</svg>