<!DOCTYPE svg PUBLIC "-//W3C//DTD SVG 20010904//EN" "http://www.w3.org/TR/2001/REC-SVG-20010904/DTD/svg10.dtd">
<svg version="1.0" xmlns="http://www.w3.org/2000/svg" width="512px" height="512px" viewBox="0 0 5120 5120" preserveAspectRatio="xMidYMid meet">
<g id="layer101" fill="#670e7a" stroke="none">
 <path d="M2190 5097 c-62 -41 -67 -61 -92 -325 l-22 -242 -71 -21 c-125 -36 -237 -80 -367 -146 l-127 -64 -174 144 c-96 80 -183 150 -195 156 -29 16 -138 14 -170 -3 -15 -8 -122 -110 -239 -228 -300 -303 -299 -292 -59 -581 l147 -178 -64 -127 c-66 -130 -110 -242 -146 -367 l-21 -71 -242 -23 c-264 -24 -285 -30 -325 -91 -23 -33 -23 -37 -23 -370 0 -457 -23 -427 348 -461 l242 -23 21 -71 c36 -125 80 -237 146 -367 l64 -127 -147 -178 c-174 -209 -188 -237 -163 -328 9 -33 50 -79 222 -253 117 -118 224 -220 239 -228 15 -8 55 -14 92 -14 75 0 65 -6 303 192 l143 119 128 -64 c130 -66 242 -110 367 -146 l71 -21 22 -242 c25 -264 30 -284 92 -325 33 -23 37 -23 370 -23 457 0 427 -23 461 348 l23 242 71 21 c125 36 237 80 367 146 l127 64 174 -144 c96 -80 183 -150 195 -156 29 -16 138 -14 170 3 15 8 122 110 239 228 300 303 299 293 59 581 l-147 177 64 128 c65 127 108 236 146 367 l21 71 242 22 c264 25 284 30 325 92 23 33 23 37 23 370 0 456 22 427 -353 462 l-237 22 -21 71 c-38 131 -81 240 -146 367 l-64 127 150 182 c159 191 179 227 166 298 -4 19 -13 47 -20 61 -7 14 -109 120 -227 237 -303 300 -292 299 -581 60 l-177 -148 -139 70 c-112 56 -292 124 -416 156 -6 2 -20 103 -33 241 -24 261 -33 293 -91 331 -34 23 -38 23 -371 23 -333 0 -337 0 -370 -23z m640 -154 c0 -5 11 -125 25 -268 14 -143 25 -267 25 -276 0 -12 26 -22 109 -42 189 -45 372 -122 544 -228 43 -27 83 -49 88 -49 5 0 102 77 215 171 113 93 211 172 217 175 7 2 95 -79 196 -180 132 -132 181 -188 175 -197 -4 -8 -84 -105 -176 -216 -92 -111 -168 -207 -168 -212 0 -5 23 -47 52 -93 102 -164 185 -366 228 -550 17 -75 26 -98 39 -98 9 0 133 -11 276 -25 143 -14 263 -25 268 -25 4 0 7 -121 7 -270 0 -148 -3 -270 -7 -270 -5 0 -125 -11 -268 -25 -143 -14 -267 -25 -276 -25 -12 0 -22 -26 -42 -109 -45 -189 -122 -372 -228 -544 -27 -43 -49 -83 -49 -88 0 -5 77 -102 171 -215 93 -113 172 -211 175 -217 2 -7 -79 -95 -180 -196 -140 -140 -188 -182 -198 -174 -7 5 -104 85 -215 177 -111 91 -207 166 -212 166 -5 0 -45 -22 -88 -49 -172 -106 -355 -183 -544 -228 -82 -20 -109 -30 -109 -42 0 -9 -11 -133 -25 -276 -14 -143 -25 -263 -25 -267 0 -5 -121 -8 -270 -8 -148 0 -270 3 -270 8 0 4 -11 124 -25 267 -14 143 -25 267 -25 276 0 12 -26 22 -109 42 -189 45 -372 122 -544 228 -43 27 -83 49 -88 49 -6 0 -101 -76 -212 -168 -111 -92 -208 -172 -216 -176 -9 -6 -65 43 -197 175 -101 101 -182 189 -180 196 3 7 82 104 176 217 93 113 170 210 170 215 0 5 -22 45 -49 88 -106 172 -183 355 -228 544 -20 83 -30 109 -42 109 -9 0 -133 11 -276 25 -143 14 -263 25 -267 25 -5 0 -8 122 -8 270 0 149 3 270 8 270 4 0 124 11 267 25 143 14 267 25 275 25 12 0 23 30 43 111 48 193 123 372 228 542 27 43 49 83 49 88 0 5 -77 102 -171 215 -93 113 -172 211 -175 217 -2 7 79 95 180 196 140 140 188 182 198 174 7 -5 104 -85 215 -177 111 -91 207 -166 212 -166 5 0 45 22 88 49 172 106 355 183 544 228 83 20 109 30 109 42 0 9 11 133 25 276 14 143 25 263 25 268 0 9 540 9 540 0z"/>
 <path d="M2416 3880 c-449 -51 -832 -313 -1034 -707 -104 -202 -146 -379 -146 -613 0 -234 42 -411 146 -613 186 -362 535 -620 938 -693 125 -23 353 -23 476 -1 548 99 974 526 1071 1071 21 121 21 353 0 472 -86 477 -432 875 -890 1025 -166 54 -392 78 -561 59z m352 -189 c531 -103 918 -552 939 -1088 32 -809 -778 -1402 -1536 -1124 -367 134 -629 429 -734 825 -31 118 -31 394 0 512 90 340 287 596 584 758 220 121 501 165 747 117z"/>
 </g>

</svg>