<!DOCTYPE svg PUBLIC "-//W3C//DTD SVG 20010904//EN" "http://www.w3.org/TR/2001/REC-SVG-20010904/DTD/svg10.dtd">
<svg version="1.0" xmlns="http://www.w3.org/2000/svg" width="402px" height="276px" viewBox="0 0 4020 2760" preserveAspectRatio="xMidYMid meet">
<g id="layer101" fill="#670e7a" stroke="none">
 <path d="M630 2746 c-76 -20 -142 -58 -202 -117 -58 -57 -112 -150 -124 -216 l-6 -33 -122 0 c-138 0 -161 -9 -171 -64 -8 -38 14 -90 40 -100 9 -3 69 -6 134 -6 l117 0 13 -49 c7 -27 28 -75 46 -105 l34 -56 -174 0 -174 0 -20 -27 -21 -26 2 -954 3 -955 24 -19 c23 -18 58 -19 1310 -19 l1288 0 21 23 c21 22 22 32 22 215 l0 192 275 0 c218 0 282 3 303 14 21 11 66 87 191 323 l164 308 196 75 c159 61 198 80 208 100 10 19 13 139 13 510 0 452 -2 488 -19 526 -10 23 -34 52 -52 65 -30 21 -48 25 -148 29 l-114 5 -17 50 c-29 86 -60 137 -119 195 -89 90 -191 129 -332 130 -127 0 -227 -39 -317 -123 -63 -60 -97 -115 -122 -195 l-18 -57 -772 0 -772 0 -18 57 c-25 80 -59 135 -122 195 -61 57 -107 83 -187 107 -64 19 -196 20 -261 2z m243 -186 c59 -28 119 -88 149 -148 34 -68 32 -169 -4 -238 -54 -103 -149 -163 -260 -164 -83 0 -143 24 -201 82 -57 57 -80 109 -85 190 -5 76 7 120 48 176 85 118 230 160 353 102z m2465 0 c59 -25 124 -91 153 -153 23 -52 25 -146 3 -210 -21 -63 -84 -131 -149 -161 -68 -33 -168 -35 -232 -7 -61 28 -128 94 -152 151 -53 123 -34 219 63 315 96 96 194 116 314 65z m-558 -413 c10 -32 30 -76 44 -97 14 -22 26 -42 26 -45 0 -3 -387 -5 -860 -5 -473 0 -860 2 -860 6 0 3 11 22 25 42 14 20 32 59 41 87 8 27 17 56 19 63 4 10 164 12 776 10 l771 -3 18 -58z m1060 -42 l0 -105 -124 0 -125 0 34 56 c18 30 39 78 46 105 l13 49 78 0 78 0 0 -105z m-1342 -1108 l2 -827 -1160 0 -1160 0 0 830 0 829 1158 -2 1157 -2 3 -828z m1340 596 l-3 -237 -173 -66 c-95 -37 -179 -73 -187 -81 -7 -8 -83 -144 -168 -304 l-154 -290 -237 -3 -236 -2 0 609 0 610 580 0 580 0 -2 -236z"/>
 </g>

</svg>