<!DOCTYPE svg PUBLIC "-//W3C//DTD SVG 20010904//EN" "http://www.w3.org/TR/2001/REC-SVG-20010904/DTD/svg10.dtd">
<svg version="1.0" xmlns="http://www.w3.org/2000/svg" width="464px" height="512px" viewBox="0 0 4640 5120" preserveAspectRatio="xMidYMid meet">
<g id="layer101" fill="#ffffff" stroke="none">
 <path d="M825 5104 c-280 -50 -510 -165 -668 -334 -106 -113 -166 -221 -154 -273 18 -69 62 -78 185 -37 86 29 106 32 182 28 146 -7 216 -55 420 -284 128 -143 205 -208 306 -259 94 -47 183 -65 325 -65 l117 0 4 -103 c3 -91 7 -111 33 -163 41 -81 2544 -3424 2618 -3496 32 -31 86 -71 119 -88 52 -25 73 -30 136 -30 58 0 82 5 109 21 96 60 107 243 24 407 -46 91 -2318 3592 -2360 3635 -49 52 -113 89 -190 108 l-65 16 -18 108 c-72 427 -299 725 -616 806 -94 24 -380 26 -507 3z m440 -169 c110 -28 184 -72 270 -159 67 -67 90 -99 133 -186 50 -101 99 -262 116 -382 l7 -47 -43 -22 c-24 -12 -52 -29 -63 -39 -25 -23 -165 -50 -259 -50 -184 1 -307 64 -467 242 -262 291 -367 360 -566 375 l-82 6 47 39 c133 111 338 196 551 227 98 15 292 12 356 -4z m730 -936 c25 -7 57 -29 86 -58 55 -56 2323 -3551 2356 -3631 12 -30 23 -75 23 -99 0 -42 -1 -43 -27 -37 -32 9 -99 54 -134 93 -15 15 -598 791 -1295 1723 -844 1127 -1273 1709 -1282 1737 -34 104 34 229 147 269 45 16 75 17 126 3z"/>
 </g>

</svg>