<!DOCTYPE svg PUBLIC "-//W3C//DTD SVG 20010904//EN" "http://www.w3.org/TR/2001/REC-SVG-20010904/DTD/svg10.dtd">
<svg version="1.0" xmlns="http://www.w3.org/2000/svg" width="379px" height="498px" viewBox="0 0 3790 4980" preserveAspectRatio="xMidYMid meet">
<g id="layer101" fill="#670e7a" stroke="none">
 <path d="M710 4966 c-157 -34 -277 -161 -302 -319 -5 -34 -54 -909 -108 -1944 -54 -1035 -101 -1887 -105 -1893 -3 -6 -45 -10 -101 -10 l-94 0 0 -105 0 -105 494 0 494 0 4 -147 c3 -142 5 -151 35 -215 39 -83 108 -155 188 -194 l60 -29 615 0 615 0 56 26 c68 32 128 84 167 147 48 75 62 139 62 284 l0 128 500 0 500 0 0 105 0 105 -94 0 c-52 0 -98 4 -101 10 -3 5 -51 873 -105 1928 -74 1420 -103 1929 -114 1959 -53 150 -160 246 -305 273 -82 15 -2289 12 -2361 -4z m2359 -226 c48 -24 87 -70 101 -118 11 -36 210 -3799 203 -3814 -2 -5 -668 -8 -1479 -8 l-1474 0 0 63 c1 34 45 892 99 1907 94 1790 98 1846 120 1888 14 27 39 54 68 73 l47 29 1138 0 c1111 0 1140 0 1177 -20z m-489 -4257 c0 -134 -23 -195 -91 -240 l-43 -28 -535 -3 c-601 -3 -590 -4 -655 68 -45 50 -56 92 -56 213 l0 97 690 0 690 0 0 -107z"/>
 <path d="M1190 4364 c0 -16 -45 -733 -100 -1593 -55 -860 -99 -1565 -97 -1567 2 -2 49 -7 104 -10 l102 -7 5 34 c7 46 197 3051 196 3112 l0 47 -67 0 c-38 0 -85 3 -105 6 -37 6 -38 6 -38 -22z"/>
 <path d="M2463 4383 c-46 -2 -83 -7 -83 -11 0 -30 201 -3187 203 -3189 2 -1 49 0 105 4 l102 6 0 31 c1 49 -190 3097 -196 3134 -4 26 -9 32 -27 30 -12 -1 -59 -4 -104 -5z"/>
 <path d="M1780 2785 l0 -1595 110 0 110 0 0 1595 0 1595 -110 0 -110 0 0 -1595z"/>
 </g>

</svg>