<!DOCTYPE svg PUBLIC "-//W3C//DTD SVG 20010904//EN" "http://www.w3.org/TR/2001/REC-SVG-20010904/DTD/svg10.dtd">
<svg version="1.0" xmlns="http://www.w3.org/2000/svg" width="512px" height="512px" viewBox="0 0 5120 5120" preserveAspectRatio="xMidYMid meet">
<g id="layer101" fill="#670e7a" stroke="none">
 <path d="M740 5104 c-137 -29 -192 -66 -206 -140 -15 -80 1 -102 252 -354 l234 -235 -138 -138 -137 -137 -235 234 c-252 251 -274 267 -354 252 -60 -11 -92 -48 -122 -139 -24 -72 -28 -102 -31 -247 -5 -181 5 -259 50 -369 93 -230 297 -440 514 -530 138 -57 192 -66 383 -65 160 0 182 2 260 27 l85 26 378 -377 378 -377 -5 -39 c-4 -36 -35 -70 -392 -427 l-388 -388 -49 45 c-60 54 -113 71 -177 56 l-45 -11 -57 56 -56 56 5 52 c11 101 3 117 -124 246 -63 65 -130 125 -148 133 -38 18 -111 21 -152 6 -32 -12 -427 -401 -449 -442 -8 -15 -14 -55 -14 -91 0 -79 14 -101 157 -239 115 -111 152 -128 238 -110 l50 10 57 -55 c50 -49 55 -59 47 -80 -19 -49 -11 -117 20 -164 46 -71 711 -723 827 -810 192 -145 390 -238 614 -291 106 -25 409 -36 515 -19 116 18 144 29 165 64 41 66 13 133 -67 162 -187 69 -313 137 -463 249 -165 123 -349 324 -381 415 -9 24 -7 35 5 53 11 15 16 44 16 88 0 70 -8 89 -66 150 l-34 35 388 387 c357 356 390 386 427 392 l41 6 366 -368 367 -367 -27 -85 c-24 -79 -26 -98 -26 -265 0 -168 2 -186 27 -269 53 -171 132 -301 258 -422 125 -120 250 -190 407 -230 172 -44 468 -28 581 31 65 33 93 105 71 178 -10 35 -54 84 -246 277 l-234 236 138 137 137 137 225 -226 c225 -225 273 -264 329 -264 80 0 123 39 158 144 23 71 27 102 31 246 3 143 1 177 -17 253 -86 361 -396 648 -765 707 -118 20 -321 8 -426 -23 l-85 -26 -348 348 -349 348 964 915 c529 503 971 924 980 934 50 57 65 201 29 279 -26 54 -383 409 -433 430 -56 23 -172 20 -225 -6 -31 -15 -137 -120 -386 -382 -189 -199 -603 -636 -922 -972 -318 -335 -581 -611 -584 -613 -3 -1 -167 159 -363 355 l-357 358 27 85 c24 79 26 98 26 265 0 167 -2 186 -27 268 -50 161 -117 277 -231 396 -127 131 -279 221 -447 261 -102 24 -336 27 -439 4z m386 -174 c440 -111 701 -590 547 -1005 -14 -38 -28 -92 -30 -119 l-5 -48 392 -393 392 -393 -133 -141 -134 -141 -396 396 -397 396 -48 -5 c-27 -2 -81 -16 -119 -30 -467 -173 -1000 181 -1023 679 -4 95 11 239 27 248 4 3 101 -90 217 -205 115 -116 221 -217 236 -225 35 -18 141 -18 176 0 15 8 100 88 189 178 164 166 177 184 177 258 0 76 -10 90 -237 317 -149 150 -216 224 -206 228 78 30 267 32 375 5z m3472 -14 c15 -8 100 -88 190 -179 177 -179 185 -195 139 -248 -12 -15 -559 -536 -1215 -1158 l-1193 -1131 -62 0 -61 0 -413 -412 -413 -413 -87 88 -88 87 413 413 412 413 0 57 c0 55 2 60 48 109 189 206 2245 2369 2259 2377 24 14 39 13 71 -3z m-792 -3273 c27 2 81 16 119 30 185 68 386 58 570 -28 93 -43 145 -80 222 -156 163 -162 242 -358 230 -573 -3 -56 -11 -119 -17 -140 l-12 -39 -216 215 c-120 119 -227 221 -239 227 -31 16 -139 14 -171 -3 -15 -8 -100 -88 -189 -178 -164 -166 -177 -184 -177 -258 0 -76 10 -90 236 -316 121 -122 216 -224 212 -227 -21 -12 -134 -27 -211 -27 -390 0 -729 324 -759 725 -8 97 8 205 43 300 14 38 28 92 30 119 l5 48 -384 387 -385 386 141 132 141 133 381 -381 382 -381 48 5z m-3105 309 c-16 -31 -13 -92 8 -137 23 -50 187 -211 225 -221 15 -3 56 -4 91 -2 l63 6 266 -267 267 -267 -17 -39 c-36 -86 6 -211 115 -348 119 -148 323 -327 483 -423 114 -68 114 -67 18 -59 -169 14 -374 79 -533 169 -165 94 -238 157 -604 520 -337 334 -361 360 -352 383 13 35 11 99 -5 136 -18 43 -195 214 -230 223 -15 3 -56 4 -91 2 l-63 -6 -83 84 -84 84 180 180 180 180 88 -89 c79 -79 88 -91 78 -109z"/>
 </g>

</svg>