<!DOCTYPE svg PUBLIC "-//W3C//DTD SVG 20010904//EN" "http://www.w3.org/TR/2001/REC-SVG-20010904/DTD/svg10.dtd">
<svg version="1.0" xmlns="http://www.w3.org/2000/svg" width="512px" height="512px" viewBox="0 0 5120 5120" preserveAspectRatio="xMidYMid meet">
<g id="layer101" fill="#670e7a" stroke="none">
 <path d="M3609 5106 c-89 -32 -155 -93 -196 -183 l-24 -52 -1327 -4 c-1181 -2 -1333 -4 -1378 -19 -150 -46 -231 -128 -269 -275 -22 -82 -37 -304 -27 -382 9 -64 9 -65 -26 -110 -45 -59 -68 -113 -86 -203 -19 -98 -29 -281 -17 -347 8 -52 7 -55 -27 -100 -68 -89 -96 -195 -107 -396 -6 -117 -3 -139 32 -273 4 -16 -4 -34 -29 -65 -95 -117 -128 -218 -128 -396 0 -143 16 -223 60 -315 65 -135 176 -235 309 -277 64 -21 81 -21 516 -20 431 2 451 2 468 -17 16 -18 15 -27 -18 -193 l-36 -174 4 -375 3 -375 27 -90 c71 -228 213 -389 395 -445 77 -24 259 -27 337 -6 169 45 307 175 385 363 41 98 59 186 70 345 7 98 16 149 39 217 77 228 290 575 502 817 79 90 314 314 329 314 4 0 12 -18 19 -39 16 -56 100 -144 169 -178 l57 -28 620 0 c616 0 620 0 667 22 70 32 141 103 172 172 l26 59 -2 1409 -3 1408 -24 44 c-35 67 -112 136 -176 160 -54 20 -72 21 -663 21 -470 -1 -615 -4 -643 -14z m1220 -224 c19 -10 43 -34 53 -53 17 -32 18 -95 18 -1359 0 -1296 -1 -1326 -20 -1357 -41 -67 -10 -64 -625 -64 -615 0 -585 -3 -625 64 -19 31 -20 61 -20 1357 0 1264 1 1327 18 1359 10 19 34 43 53 53 31 17 70 18 574 18 504 0 543 -1 574 -18z m-1491 -1403 l2 -1156 -47 -30 c-72 -45 -281 -240 -400 -373 -116 -130 -188 -226 -311 -420 -192 -302 -276 -515 -288 -734 -11 -205 -60 -348 -151 -440 -69 -71 -139 -101 -233 -101 -173 0 -304 121 -362 332 -19 69 -22 112 -25 368 l-5 290 42 210 c45 227 46 274 10 345 -26 50 -76 99 -125 121 -37 17 -76 19 -490 19 -291 0 -464 4 -490 11 -97 26 -177 105 -218 217 -16 43 -21 81 -21 157 -1 88 2 107 26 157 14 31 48 84 75 117 l48 61 352 0 351 0 30 25 c52 44 54 120 5 169 l-26 26 -354 0 -354 0 -16 38 c-12 29 -14 59 -10 147 7 131 25 196 69 253 l32 42 343 0 c369 0 393 3 427 51 25 37 21 112 -8 146 l-24 28 -354 5 -353 5 1 111 c2 128 19 201 63 262 l31 41 301 3 301 3 29 33 c23 26 29 42 29 78 0 46 -19 86 -48 101 -9 4 -143 10 -297 13 l-280 5 0 125 c1 130 11 179 46 225 23 28 68 54 114 66 17 4 599 6 1295 5 l1265 -1 3 -1156z"/>
 <path d="M4179 4373 c-39 -24 -59 -65 -59 -118 0 -87 50 -135 140 -135 47 0 56 4 91 39 36 36 39 43 39 96 0 53 -3 60 -39 96 -35 36 -43 39 -92 39 -32 0 -65 -7 -80 -17z"/>
 </g>

</svg>