<!DOCTYPE svg PUBLIC "-//W3C//DTD SVG 20010904//EN" "http://www.w3.org/TR/2001/REC-SVG-20010904/DTD/svg10.dtd">
<svg version="1.0" xmlns="http://www.w3.org/2000/svg" width="305px" height="466px" viewBox="0 0 3050 4660" preserveAspectRatio="xMidYMid meet">
<g id="layer101" fill="#670e7a" stroke="none">
 <path d="M2241 4653 c-22 -9 -102 -72 -142 -112 -20 -20 -64 -61 -98 -91 -34 -30 -85 -77 -114 -103 -28 -26 -74 -68 -102 -93 -101 -92 -171 -157 -211 -197 l-42 -41 -93 87 c-137 128 -518 477 -562 515 -32 27 -45 32 -91 32 -63 0 -102 -17 -124 -57 -15 -25 -17 -104 -20 -823 -1 -437 0 -800 2 -806 3 -9 25 -2 72 22 37 19 72 34 79 34 7 0 14 8 17 18 2 9 3 322 2 695 0 390 3 680 8 683 10 6 59 -37 209 -183 l96 -93 -1 -585 c-1 -438 2 -585 11 -585 6 0 42 31 81 69 60 60 70 75 74 112 3 24 4 218 2 432 -1 213 2 389 6 392 4 3 54 -37 110 -88 56 -50 106 -94 111 -95 10 -4 57 33 138 108 27 25 62 57 78 71 l29 27 -1 -442 -1 -441 70 -72 c39 -40 77 -73 86 -73 13 0 15 68 15 589 l0 589 50 49 c115 110 238 218 249 218 8 0 11 -184 11 -696 l0 -697 55 -18 c30 -10 67 -26 81 -36 l26 -17 5 72 c2 40 4 403 3 807 -1 695 -2 737 -20 763 -10 15 -30 34 -44 41 -32 16 -91 26 -110 19z"/>
 <path d="M1404 3014 c-27 -21 -86 -75 -130 -121 -45 -46 -89 -83 -98 -83 -9 0 -42 9 -73 20 -32 11 -76 22 -97 26 -22 3 -50 10 -63 15 -14 5 -48 9 -76 9 -43 0 -63 -7 -108 -35 -67 -41 -92 -90 -129 -255 -7 -30 -19 -69 -26 -86 -7 -17 -11 -34 -9 -36 3 -3 -21 -10 -52 -17 -32 -7 -76 -19 -98 -27 -22 -7 -64 -19 -94 -25 -44 -9 -64 -21 -106 -63 -49 -47 -54 -56 -61 -111 -7 -63 -3 -90 40 -243 14 -51 26 -98 26 -103 0 -5 -47 -57 -105 -115 -58 -58 -112 -122 -121 -143 -8 -20 -16 -63 -17 -96 -2 -76 17 -107 147 -235 53 -52 96 -102 96 -111 0 -9 -7 -36 -15 -60 -9 -24 -18 -59 -21 -77 -3 -19 -12 -52 -20 -74 -31 -88 -12 -179 49 -242 36 -37 56 -48 142 -74 55 -17 111 -33 125 -36 96 -19 88 -10 106 -106 5 -27 36 -127 61 -197 17 -50 80 -109 132 -123 51 -14 112 -12 159 4 22 8 55 17 74 20 18 3 53 12 77 21 24 8 51 15 60 15 9 0 59 -43 111 -96 128 -130 159 -149 235 -147 33 1 76 8 96 17 21 8 85 63 143 121 58 58 110 105 115 105 5 0 52 -12 103 -26 153 -43 180 -47 243 -40 55 7 64 12 111 61 42 42 54 62 63 106 6 30 18 72 25 94 8 22 20 66 27 98 7 31 14 55 17 52 2 -2 19 2 36 9 17 7 56 19 86 25 30 7 91 25 134 39 77 26 81 28 118 86 32 49 38 68 38 112 0 29 -4 64 -9 77 -6 14 -12 43 -16 66 -3 22 -15 66 -25 97 -11 32 -20 64 -20 72 0 8 37 51 83 96 46 44 100 103 120 129 34 45 37 54 37 117 0 98 -18 131 -136 250 l-104 105 21 80 c11 44 26 105 34 135 23 90 19 149 -13 201 -16 24 -38 52 -48 61 -26 23 -101 55 -144 62 -19 3 -71 16 -115 28 l-80 23 -23 80 c-12 44 -25 96 -28 115 -7 43 -39 118 -62 144 -39 44 -104 76 -155 76 -49 0 -69 -4 -197 -40 -128 -36 -111 -42 -240 84 -63 62 -122 114 -130 115 -8 1 -51 5 -96 7 l-81 5 -49 -37z m281 -265 c149 -150 124 -142 300 -94 174 47 201 53 217 44 21 -11 41 -69 83 -233 19 -77 37 -141 38 -143 2 -1 66 -19 143 -38 166 -43 222 -63 233 -84 10 -19 -11 -117 -60 -279 -10 -34 -19 -73 -19 -85 0 -15 41 -63 130 -152 94 -94 130 -136 130 -154 0 -17 -35 -59 -130 -153 -71 -70 -130 -136 -130 -146 0 -10 7 -41 15 -68 8 -27 17 -65 20 -84 3 -19 14 -60 24 -90 25 -71 33 -122 24 -136 -10 -13 -80 -38 -158 -58 -141 -35 -218 -55 -219 -58 -7 -12 -46 -148 -46 -160 0 -8 -8 -41 -19 -74 -10 -32 -23 -78 -30 -100 -13 -48 -27 -56 -73 -44 -18 5 -44 11 -58 14 -42 7 -152 37 -213 57 l-59 20 -45 -42 c-25 -23 -87 -84 -137 -135 -54 -56 -100 -94 -111 -94 -12 0 -74 54 -156 136 l-136 136 -47 -16 c-26 -9 -53 -16 -60 -16 -7 0 -40 -9 -73 -19 -33 -11 -76 -22 -95 -25 -20 -3 -48 -10 -63 -16 -52 -20 -75 5 -91 97 -3 15 -13 53 -23 83 -10 30 -26 87 -36 126 l-18 71 -71 18 c-39 10 -96 26 -126 36 -30 10 -68 20 -83 23 -91 16 -119 42 -99 94 6 15 16 52 23 82 6 30 15 62 19 70 5 8 11 31 14 52 3 20 13 57 22 84 l16 47 -136 136 c-82 82 -136 144 -136 156 0 11 38 57 94 111 51 50 112 112 135 137 l42 45 -20 59 c-20 61 -50 171 -57 213 -3 14 -9 40 -14 58 -12 46 -4 60 44 73 22 7 68 20 100 30 33 11 66 19 74 19 12 0 148 39 160 46 2 1 12 37 23 80 68 267 77 293 104 300 11 3 56 -6 100 -20 44 -14 96 -28 115 -31 19 -3 57 -12 84 -20 27 -8 58 -15 68 -15 10 0 75 58 145 130 96 96 134 129 153 130 19 0 56 -31 155 -131z"/>
 <path d="M1382 2405 c-80 -13 -164 -39 -227 -72 -16 -8 -52 -27 -80 -41 -27 -14 -63 -39 -80 -55 -16 -16 -41 -35 -55 -42 -14 -7 -40 -34 -59 -59 -19 -25 -38 -46 -42 -46 -6 0 -41 -53 -86 -133 -103 -181 -134 -435 -78 -657 56 -226 212 -422 440 -553 234 -135 600 -132 842 6 80 45 133 80 133 86 0 4 21 23 46 42 25 19 52 45 59 59 7 14 26 39 42 55 16 17 41 53 55 80 14 28 33 64 41 80 64 124 89 269 76 447 -9 128 -21 176 -79 309 -101 229 -278 381 -551 470 -99 32 -274 43 -397 24z m294 -179 c285 -60 501 -282 554 -569 21 -112 8 -264 -29 -366 -18 -45 -43 -98 -56 -115 -14 -18 -25 -38 -25 -44 0 -13 -142 -157 -186 -188 -113 -81 -257 -124 -413 -124 -141 0 -229 26 -359 107 -29 18 -56 33 -59 33 -10 0 -143 133 -143 142 0 4 -15 31 -33 60 -81 130 -107 218 -107 359 0 156 43 300 124 413 31 44 175 186 188 186 6 0 26 11 44 25 31 24 146 71 209 85 58 13 220 11 291 -4z"/>
 </g>

</svg>