<!DOCTYPE svg PUBLIC "-//W3C//DTD SVG 20010904//EN" "http://www.w3.org/TR/2001/REC-SVG-20010904/DTD/svg10.dtd">
<svg version="1.0" xmlns="http://www.w3.org/2000/svg" width="492px" height="492px" viewBox="0 0 4920 4920" preserveAspectRatio="xMidYMid meet">
<g id="layer101" fill="#670e7a" stroke="none">
 <path d="M938 3982 l-938 -937 0 -45 c1 -25 6 -54 13 -65 7 -11 573 -579 1257 -1262 l1245 -1243 238 0 c130 0 237 -2 237 -5 0 -3 7 -41 16 -83 28 -137 117 -287 195 -327 92 -48 187 19 177 126 -4 39 -13 57 -52 101 -42 48 -86 136 -86 173 0 13 41 15 277 15 l278 0 347 348 348 347 0 640 0 640 -1242 1245 c-684 685 -1253 1251 -1266 1258 -13 7 -42 12 -65 12 l-42 0 -937 -938z m2165 -510 l1167 -1167 0 -535 0 -535 -292 -292 -293 -293 -213 0 -213 0 15 29 c8 15 46 59 83 97 38 38 83 97 101 131 39 74 72 197 72 268 0 50 2 53 44 83 124 89 193 263 167 420 -25 144 -114 261 -248 325 -64 30 -74 32 -178 32 -90 -1 -120 -5 -165 -23 -112 -45 -197 -130 -242 -242 -18 -45 -22 -75 -23 -165 0 -104 2 -114 32 -178 61 -128 190 -229 313 -244 46 -5 50 -8 50 -32 0 -47 -55 -146 -112 -200 -64 -61 -115 -141 -145 -230 l-22 -66 -193 -3 -192 -2 -1171 1170 -1170 1170 825 825 c454 454 827 825 830 825 3 0 530 -525 1173 -1168z m293 -1681 c68 -31 125 -118 124 -192 0 -13 -9 -42 -19 -64 l-18 -40 -27 53 c-31 61 -97 137 -137 158 -89 46 -179 -13 -179 -118 0 -41 6 -53 45 -99 51 -60 58 -80 18 -51 -112 80 -124 223 -26 313 65 61 142 75 219 40z"/>
 <path d="M1990 3739 c-30 -12 -785 -763 -806 -801 -45 -85 28 -181 125 -163 31 5 93 64 428 398 281 280 396 401 404 426 31 94 -57 177 -151 140z"/>
 <path d="M2405 3309 c-29 -16 -741 -726 -776 -773 -41 -55 -41 -116 0 -157 25 -25 37 -29 83 -29 l53 0 402 403 403 402 0 52 c0 72 -28 104 -96 110 -27 2 -58 -2 -69 -8z"/>
 <path d="M2723 4696 c-40 -18 -53 -43 -53 -103 l0 -48 1010 -1010 1009 -1009 3 -379 3 -379 33 -29 c56 -51 148 -37 181 28 8 15 11 150 11 435 l0 413 -1043 1043 c-984 984 -1046 1044 -1083 1048 -22 2 -53 -2 -71 -10z"/>
 </g>

</svg>