<!DOCTYPE svg PUBLIC "-//W3C//DTD SVG 20010904//EN" "http://www.w3.org/TR/2001/REC-SVG-20010904/DTD/svg10.dtd">
<svg version="1.0" xmlns="http://www.w3.org/2000/svg" width="504px" height="512px" viewBox="0 0 5040 5120" preserveAspectRatio="xMidYMid meet">
<g id="layer101" fill="#670e7a" stroke="none">
 <path d="M3493 5113 c-35 -2 -63 -8 -63 -12 0 -9 -51 -22 -109 -27 -18 -2 -41 -10 -50 -17 -20 -17 -83 -43 -94 -39 -5 1 -33 -13 -62 -33 -29 -19 -60 -35 -69 -35 -8 0 -30 -14 -48 -31 -18 -17 -52 -39 -76 -50 -23 -10 -41 -22 -40 -27 3 -10 -49 -56 -75 -65 -9 -4 -20 -15 -24 -24 -9 -26 -54 -73 -70 -73 -8 0 -20 -15 -28 -34 -8 -19 -32 -51 -52 -71 -21 -20 -38 -42 -38 -48 0 -19 -26 -61 -48 -78 -11 -9 -21 -26 -22 -37 -2 -30 -36 -102 -46 -96 -4 2 -11 -12 -14 -33 -10 -55 -26 -107 -37 -114 -5 -3 -11 -22 -13 -40 -7 -72 -18 -129 -25 -129 -7 0 -13 -106 -13 -215 1 -102 14 -233 27 -265 26 -64 64 -190 55 -184 -22 13 25 -78 104 -203 120 -189 266 -340 425 -442 40 -25 87 -56 105 -68 44 -32 138 -76 157 -76 18 1 142 -35 186 -53 28 -12 147 -24 259 -26 74 -1 200 10 238 22 34 10 75 16 131 19 11 1 16 4 12 8 -7 7 59 31 108 38 16 3 32 9 35 13 7 10 93 56 101 54 11 -3 41 10 36 16 -7 7 64 51 82 52 8 0 34 20 59 45 24 25 48 43 53 40 4 -3 25 16 45 41 21 25 48 50 62 55 13 5 26 17 30 26 10 30 54 84 63 78 4 -3 17 15 29 40 11 24 34 58 51 75 16 17 30 38 30 46 0 21 30 77 48 90 8 6 16 20 17 30 2 31 27 98 42 112 7 7 13 25 13 38 0 35 21 114 30 114 24 0 29 405 5 505 -9 39 -18 88 -19 111 -2 23 -11 54 -19 70 -9 16 -22 43 -28 59 -7 17 -33 72 -59 122 -26 51 -43 90 -38 87 39 -24 -109 168 -199 259 -91 92 -295 251 -270 210 4 -6 -34 10 -85 37 -51 26 -104 51 -118 55 -14 4 -32 13 -40 20 -20 16 -90 39 -115 37 -11 -1 -55 5 -99 13 -74 14 -262 17 -433 8z m342 -223 c7 -6 41 -12 76 -15 66 -4 164 -29 186 -47 23 -19 134 -68 127 -56 -8 13 40 -15 130 -75 110 -74 229 -207 316 -351 13 -22 19 -36 12 -32 -12 7 37 -104 56 -127 16 -18 54 -165 47 -177 -3 -5 1 -37 9 -71 18 -67 14 -302 -4 -325 -6 -6 -12 -34 -14 -60 -5 -62 -16 -104 -27 -104 -4 0 -11 -17 -15 -37 -9 -53 -35 -114 -44 -108 -8 5 -22 -25 -25 -50 -2 -23 -30 -66 -52 -80 -12 -9 -23 -22 -23 -31 0 -19 -50 -85 -60 -79 -4 2 -15 -4 -25 -15 -10 -11 -14 -20 -10 -20 5 0 -6 -16 -25 -35 -18 -19 -37 -32 -41 -29 -4 2 -18 -9 -31 -26 -12 -17 -46 -42 -75 -56 -29 -13 -53 -28 -53 -32 0 -11 -69 -44 -98 -48 -13 -2 -29 -9 -35 -17 -14 -17 -83 -41 -95 -33 -5 3 -26 -4 -47 -15 -21 -12 -67 -23 -104 -26 -116 -11 -374 -6 -406 7 -56 23 -115 38 -109 29 7 -12 -105 30 -173 65 -28 14 -54 30 -58 36 -3 5 -33 28 -66 51 -83 56 -187 156 -240 230 -24 34 -56 76 -70 93 -15 17 -36 51 -49 75 -31 62 -72 174 -61 167 10 -7 -12 71 -29 105 -7 12 -14 59 -15 105 -2 45 -6 96 -10 112 -3 17 -1 57 4 89 6 32 13 83 15 114 2 31 10 69 18 85 9 16 18 48 21 72 3 24 18 61 33 83 15 22 24 42 21 45 -9 9 21 64 49 93 13 13 24 32 24 43 0 10 21 39 47 63 26 25 43 45 38 45 -13 0 26 40 69 71 21 16 35 29 31 29 -18 0 30 40 72 60 25 12 42 24 39 27 -8 8 72 56 82 49 5 -3 20 6 35 18 32 27 66 42 120 51 21 3 35 10 32 15 -5 8 81 33 101 29 25 -4 64 2 59 10 -10 17 300 27 320 11z"/>
 <path d="M3626 4098 c3 -12 0 -18 -10 -18 -12 0 -16 -11 -17 -42 -4 -142 -4 -697 -1 -720 5 -33 43 -41 152 -30 l75 7 -2 290 -1 290 289 1 c159 1 293 4 297 8 4 4 7 58 7 119 l0 112 -397 0 c-374 0 -397 -1 -392 -17z"/>
 <path d="M111 4148 c-22 -14 -41 -24 -44 -22 -2 2 -12 -5 -22 -16 -10 -11 -15 -20 -11 -20 3 0 -1 -15 -10 -32 -16 -31 -17 -158 -18 -1783 l-1 -1750 29 -42 c16 -23 49 -56 74 -74 l45 -33 313 0 c172 -1 316 -5 321 -9 4 -5 8 -59 8 -120 0 -108 1 -114 30 -157 17 -24 48 -55 70 -67 39 -22 49 -23 300 -23 182 0 271 4 295 13 46 16 61 26 55 37 -3 4 2 13 11 21 32 26 39 55 39 172 0 88 3 120 14 126 7 5 241 8 520 7 l507 -1 -1 -130 c-1 -147 6 -169 62 -212 l36 -28 304 0 304 0 27 35 c15 19 35 43 46 54 16 16 18 36 20 151 l1 133 285 -2 c226 -2 298 0 350 12 54 13 122 42 97 42 -4 0 5 18 19 40 15 22 29 40 33 40 3 0 6 420 5 933 l0 932 -115 0 -114 0 1 -336 0 -336 -1872 1 c-1030 1 -1876 5 -1881 9 -9 10 -13 2155 -3 2201 l6 31 932 1 c512 0 935 4 939 8 9 9 7 205 -1 214 -3 3 -447 6 -986 6 l-980 1 -39 -27z m3886 -3102 l0 -431 -282 -1 -283 -1 1 96 c1 111 -14 154 -70 200 -59 48 -122 58 -364 56 l-216 -3 -44 -28 c-24 -16 -47 -27 -51 -26 -8 2 -31 -26 -34 -42 -17 -82 -23 -142 -18 -192 l6 -60 -527 -1 -528 0 6 77 c3 43 3 107 0 144 -6 64 -6 66 -34 66 -15 0 -31 5 -35 11 -3 6 -27 21 -53 32 -42 19 -65 21 -278 21 -127 1 -229 -2 -226 -6 2 -5 -4 -8 -14 -8 -10 0 -31 -7 -47 -15 -15 -8 -32 -13 -36 -10 -9 5 -33 -21 -36 -39 -1 -7 -11 -32 -23 -56 -18 -37 -20 -54 -14 -129 l6 -86 -285 -1 -284 -1 -1 431 0 432 1882 0 1881 1 1 -431z m-2630 -567 l1 -248 -72 -5 c-39 -2 -114 -4 -167 -4 l-95 1 -2 221 c-1 244 2 273 26 279 9 2 83 4 163 4 l146 0 0 -248z m1830 -3 l0 -252 -166 0 -167 0 -1 180 c-1 100 0 213 3 252 l5 72 163 0 163 0 0 -252z"/>
 </g>

</svg>