<!DOCTYPE svg PUBLIC "-//W3C//DTD SVG 20010904//EN" "http://www.w3.org/TR/2001/REC-SVG-20010904/DTD/svg10.dtd">
<svg version="1.0" xmlns="http://www.w3.org/2000/svg" width="130px" height="222px" viewBox="0 0 1300 2220" preserveAspectRatio="xMidYMid meet">
<g id="layer101" fill="#000000" stroke="none">
 <path d="M81 2171 l-31 -29 0 -1037 0 -1037 31 -29 31 -29 525 0 c472 0 528 2 553 17 16 9 33 27 39 40 15 34 15 2042 0 2076 -6 13 -23 31 -39 40 -25 15 -81 17 -553 17 l-525 0 -31 -29z m1053 -57 c13 -5 16 -23 16 -95 l0 -89 -510 0 -510 0 0 79 c0 59 4 84 16 95 14 14 72 16 494 16 263 0 485 -3 494 -6z m16 -1024 l0 -750 -510 0 -510 0 0 750 0 750 510 0 510 0 0 -750z m0 -914 c0 -58 -3 -75 -16 -80 -9 -3 -231 -6 -494 -6 -422 0 -480 2 -494 16 -11 11 -16 35 -16 80 l0 64 510 0 510 0 0 -74z"/>
 <path d="M599 2072 c-52 -43 -11 -131 56 -118 38 8 55 30 55 72 0 57 -64 83 -111 46z"/>
 </g>

</svg>