<!DOCTYPE svg PUBLIC "-//W3C//DTD SVG 20010904//EN" "http://www.w3.org/TR/2001/REC-SVG-20010904/DTD/svg10.dtd">
<svg version="1.0" xmlns="http://www.w3.org/2000/svg" width="360px" height="336px" viewBox="0 0 3600 3360" preserveAspectRatio="xMidYMid meet">
<g id="layer101" fill="#999999" stroke="none">
 <path d="M1580 3353 c-73 -8 -249 -44 -325 -67 -655 -197 -1118 -703 -1230 -1341 -24 -136 -24 -394 0 -530 112 -638 575 -1144 1230 -1341 189 -57 282 -69 545 -69 263 0 356 12 545 69 583 176 1031 612 1189 1157 91 315 81 675 -26 978 -96 271 -325 601 -460 662 -46 21 -68 24 -173 24 -114 0 -123 -2 -187 -32 -73 -34 -144 -95 -188 -159 -37 -53 -70 -152 -70 -210 l0 -46 -46 41 c-272 239 -689 307 -1034 168 -161 -66 -336 -203 -435 -342 -280 -394 -236 -948 101 -1289 138 -139 312 -234 509 -277 90 -20 323 -18 422 4 150 32 325 118 427 209 l54 47 6 -31 c8 -41 49 -94 89 -115 43 -22 132 -21 180 2 22 10 51 36 65 58 l27 41 5 695 c4 563 8 701 19 721 15 27 81 100 91 100 12 0 116 -153 158 -230 47 -88 94 -217 118 -327 24 -107 24 -339 0 -446 -57 -259 -179 -473 -377 -662 -110 -105 -214 -177 -354 -245 -206 -101 -365 -139 -610 -147 -143 -4 -189 -2 -290 15 -567 97 -1004 484 -1132 1001 -23 92 -27 126 -27 261 1 166 12 239 60 379 230 669 1034 1062 1727 845 95 -29 136 -30 187 -4 62 32 93 81 98 156 2 35 1 75 -2 89 -9 37 -66 96 -111 116 -47 20 -204 54 -325 68 -78 10 -370 13 -450 4z m320 -998 c233 -71 400 -245 460 -481 86 -336 -132 -685 -484 -774 -288 -73 -597 78 -731 355 -180 375 43 816 459 911 76 17 220 12 296 -11z"/>
 </g>

</svg>