<!DOCTYPE svg PUBLIC "-//W3C//DTD SVG 20010904//EN" "http://www.w3.org/TR/2001/REC-SVG-20010904/DTD/svg10.dtd">
<svg version="1.0" xmlns="http://www.w3.org/2000/svg" width="257px" height="361px" viewBox="0 0 2570 3610" preserveAspectRatio="xMidYMid meet">
<g id="layer101" fill="#999999" stroke="none">
 <path d="M700 2752 c-387 -598 -566 -884 -592 -945 -143 -329 -138 -750 12 -1064 174 -366 507 -633 890 -714 150 -32 400 -32 549 0 260 55 464 171 658 375 147 153 241 311 297 498 70 233 74 502 10 740 -48 181 -86 243 -682 1120 -309 455 -562 832 -562 838 0 5 -6 10 -12 10 -7 0 -263 -386 -568 -858z m760 -842 c132 -45 240 -128 318 -244 69 -103 93 -178 99 -306 9 -183 -45 -326 -170 -454 -132 -133 -286 -194 -467 -183 -160 9 -276 62 -395 181 -181 182 -227 449 -120 685 74 160 244 297 419 337 87 20 234 12 316 -16z"/>
 </g>

</svg>