<!DOCTYPE svg PUBLIC "-//W3C//DTD SVG 20010904//EN" "http://www.w3.org/TR/2001/REC-SVG-20010904/DTD/svg10.dtd">
<svg version="1.0" xmlns="http://www.w3.org/2000/svg" width="199px" height="278px" viewBox="0 0 1990 2780" preserveAspectRatio="xMidYMid meet">
<g id="layer101" fill="#999999" stroke="none">
 <path d="M1285 2768 c-27 -5 -61 -10 -75 -12 -14 -2 -37 -8 -51 -14 -15 -6 -45 -16 -67 -22 -23 -6 -44 -15 -47 -20 -3 -6 -15 -10 -26 -10 -10 0 -19 -4 -19 -10 0 -5 -9 -10 -20 -10 -11 0 -20 -4 -20 -10 0 -5 -5 -10 -10 -10 -6 0 -16 -5 -23 -10 -7 -6 -33 -25 -58 -43 -55 -38 -164 -131 -193 -166 -12 -13 -40 -46 -62 -71 -56 -65 -155 -197 -178 -240 -11 -19 -31 -53 -45 -75 -47 -73 -95 -166 -195 -375 -17 -36 -31 -67 -32 -70 0 -3 -6 -18 -13 -35 -7 -16 -14 -34 -15 -40 -2 -5 -6 -17 -9 -25 -29 -77 -81 -264 -90 -327 -3 -17 -7 -35 -10 -40 -16 -26 -25 -255 -15 -363 10 -107 14 -130 33 -180 9 -25 21 -61 27 -80 6 -19 13 -37 17 -40 11 -9 31 -50 31 -65 0 -8 4 -15 8 -15 5 0 18 -17 30 -37 46 -81 169 -192 268 -241 134 -68 220 -105 250 -109 45 -6 106 13 138 42 41 38 103 153 121 225 1 3 7 18 13 33 7 16 12 36 12 46 0 10 3 21 7 25 4 3 8 12 9 19 2 7 6 23 9 37 20 82 33 161 31 184 -15 127 -65 195 -190 256 -46 22 -87 40 -91 40 -20 0 -108 53 -130 77 -49 57 -54 158 -14 313 6 25 17 59 25 77 8 17 14 36 14 42 0 6 4 19 9 29 5 9 38 76 72 147 35 72 88 166 117 210 60 90 174 205 202 205 10 0 22 5 25 11 4 6 30 9 59 8 50 -3 118 -32 160 -68 10 -9 20 -15 22 -14 7 4 39 -10 58 -26 10 -9 19 -14 20 -12 0 2 24 -4 53 -12 103 -31 200 2 296 101 31 33 57 62 57 66 0 3 20 32 43 63 24 32 56 78 71 103 15 25 32 54 39 65 7 11 17 23 22 27 6 4 6 8 1 8 -5 0 -4 6 1 13 17 21 35 116 29 150 -7 38 -55 100 -94 121 -63 34 -152 77 -159 77 -5 0 -15 7 -23 14 -8 7 -28 17 -45 21 -16 4 -34 9 -40 13 -5 3 -14 6 -20 8 -5 1 -21 5 -35 8 -80 19 -213 25 -285 13z"/>
 </g>

</svg>